HIERARCHY
ROOT Hips
{
	OFFSET -0.001795 -0.223333 0.028219
	CHANNELS 6 Xposition Yposition Zposition Zrotation Yrotation Xrotation 
	JOINT LeftUpLeg
	{
		OFFSET 0.069520 -0.091406 -0.006815
		CHANNELS 3 Zrotation Yrotation Xrotation
		JOINT LeftLeg
		{
			OFFSET 0.034277 -0.375199 -0.004496
			CHANNELS 3 Zrotation Yrotation Xrotation
			JOINT LeftFoot
			{
				OFFSET -0.013596 -0.397961 -0.043693
				CHANNELS 3 Zrotation Yrotation Xrotation
				JOINT LeftToe
				{
					OFFSET 0.026358 -0.055791 0.119288
					CHANNELS 3 Zrotation Yrotation Xrotation
					End Site
					{
						OFFSET 0.000000 0.000000 0.000000
					}
				}
			}
		}
	}
	JOINT RightUpLeg
	{
		OFFSET -0.067670 -0.090522 -0.004320
		CHANNELS 3 Zrotation Yrotation Xrotation
		JOINT RightLeg
		{
			OFFSET -0.038290 -0.382569 -0.008850
			CHANNELS 3 Zrotation Yrotation Xrotation
			JOINT RightFoot
			{
				OFFSET 0.015774 -0.398415 -0.042312
				CHANNELS 3 Zrotation Yrotation Xrotation
				JOINT RightToe
				{
					OFFSET -0.025372 -0.048144 0.123348
					CHANNELS 3 Zrotation Yrotation Xrotation
					End Site
					{
						OFFSET 0.000000 0.000000 0.000000
					}
				}
			}
		}
	}
	JOINT Spine
	{
		OFFSET -0.002533 0.108963 -0.026696
		CHANNELS 3 Zrotation Yrotation Xrotation
		JOINT Spine1
		{
			OFFSET 0.005487 0.135180 0.001092
			CHANNELS 3 Zrotation Yrotation Xrotation
			JOINT Spine2
			{
				OFFSET 0.001457 0.052922 0.025425
				CHANNELS 3 Zrotation Yrotation Xrotation
				JOINT Neck
				{
					OFFSET -0.002778 0.213870 -0.042857
					CHANNELS 3 Zrotation Yrotation Xrotation
					JOINT Head
					{
						OFFSET 0.005152 0.064970 0.051349
						CHANNELS 3 Zrotation Yrotation Xrotation
						End Site
						{
							OFFSET 0.000000 0.000000 0.000000
						}
					}
				}
				JOINT LeftShoulder
				{
					OFFSET 0.078845 0.121749 -0.034090
					CHANNELS 3 Zrotation Yrotation Xrotation
					JOINT LeftArm
					{
						OFFSET 0.090977 0.030469 -0.008868
						CHANNELS 3 Zrotation Yrotation Xrotation
						JOINT LeftForeArm
						{
							OFFSET 0.259612 -0.012772 -0.027456
							CHANNELS 3 Zrotation Yrotation Xrotation
							JOINT LeftHand
							{
								OFFSET 0.249234 0.008986 -0.001171
								CHANNELS 3 Zrotation Yrotation Xrotation
								End Site
								{
									OFFSET 0.000000 0.000000 0.000000
								}
							}
						}
					}
				}
				JOINT RightShoulder
				{
					OFFSET -0.081759 0.118833 -0.038615
					CHANNELS 3 Zrotation Yrotation Xrotation
					JOINT RightArm
					{
						OFFSET -0.096012 0.032551 -0.009143
						CHANNELS 3 Zrotation Yrotation Xrotation
						JOINT RightForeArm
						{
							OFFSET -0.253742 -0.013329 -0.021401
							CHANNELS 3 Zrotation Yrotation Xrotation
							JOINT RightHand
							{
								OFFSET -0.255298 0.007772 -0.005559
								CHANNELS 3 Zrotation Yrotation Xrotation
								End Site
								{
									OFFSET 0.000000 0.000000 0.000000
								}
							}
						}
					}
				}
			}
		}
	}
}
MOTION
Frames: 11
Frame Time: 0.050000
-0.031066 0.950574 -0.026344 1.366192 3.725472 12.818240 5.423504 -0.841365 -12.378540 2.230432 -0.196550 -0.418999 -0.912601 2.964629 10.496739 0.000000 0.000000 0.000000 -0.846813 1.024954 -10.739793 -9.265608 -0.120057 -8.746527 0.573208 -5.207945 18.575207 0.000000 0.000000 0.000000 4.024231 0.026751 -3.386171 -1.545234 0.803122 -4.985649 -7.158213 9.125135 0.610884 12.766942 -5.781396 -14.147061 0.000000 0.000000 0.000000 -11.750628 4.186743 -4.824623 -35.684557 5.043231 -4.728557 -95.288116 -46.025078 46.833992 0.000000 0.000000 0.000000 11.088364 -9.167640 -3.834440 62.795858 5.286557 -1.433291 47.305728 67.237184 39.756238 0.000000 0.000000 0.000000 
-0.034479 0.950559 -0.025932 1.353103 4.854816 12.845954 5.740769 -0.858269 -12.656351 2.168430 -0.191743 -0.327076 -1.504301 2.185258 10.745840 0.000000 0.000000 0.000000 -0.517761 1.007307 -10.431678 -9.022258 -0.125285 -8.785323 -0.200988 -6.268312 18.445155 0.000000 0.000000 0.000000 3.860140 0.025873 -3.371798 -1.377441 0.741626 -4.776994 -7.671298 9.731206 0.063764 13.335684 -6.244513 -13.430615 0.000000 0.000000 0.000000 -11.335305 4.201924 -4.881417 -35.498199 4.703767 -4.566246 -96.911059 -45.232131 46.456319 0.000000 0.000000 0.000000 11.536778 -9.210026 -3.725969 61.559578 5.521878 -1.241844 44.543026 67.697811 38.465236 0.000000 0.000000 0.000000 
-0.037091 0.950143 -0.025591 1.394574 5.873689 12.998375 5.953682 -0.882534 -12.953826 2.087243 -0.179136 -0.357799 -1.647094 2.031710 10.674702 0.000000 0.000000 0.000000 -0.455511 1.000560 -10.371555 -8.841021 -0.146392 -8.954233 -0.781038 -7.096932 18.654662 0.000000 0.000000 0.000000 3.906040 0.031636 -3.550632 -1.441617 0.775351 -4.716741 -7.828836 10.014706 0.020933 13.747981 -6.430346 -13.502122 0.000000 0.000000 0.000000 -11.270442 4.440611 -5.075585 -35.712535 4.194275 -4.437709 -98.260840 -44.855589 46.548294 0.000000 0.000000 0.000000 11.407838 -9.345209 -3.691899 60.832468 6.170391 -0.859253 40.879273 68.010456 36.290445 0.000000 0.000000 0.000000 
-0.038707 0.949586 -0.025318 1.463565 6.961780 12.937782 6.184128 -0.904204 -13.220522 1.932049 -0.169504 -0.206891 -1.829132 1.791904 10.545010 0.000000 0.000000 0.000000 -0.211347 0.999438 -10.284673 -8.912829 -0.107859 -8.705432 -1.674224 -8.382951 18.591688 0.000000 0.000000 0.000000 3.868533 0.021930 -3.436077 -1.418234 0.778448 -4.799849 -8.078992 10.333216 -0.242815 14.139606 -6.555096 -13.685153 0.000000 0.000000 0.000000 -11.447828 4.778642 -5.397877 -35.718573 4.310103 -4.439633 -99.518390 -43.811215 45.827754 0.000000 0.000000 0.000000 11.835750 -9.965650 -3.909939 59.280819 6.596752 -0.685626 38.727731 68.683937 35.502198 0.000000 0.000000 0.000000 
-0.039499 0.948638 -0.025199 1.494068 7.658409 13.066692 6.285175 -0.930199 -13.519739 1.910784 -0.174552 -0.033818 -1.826865 1.808994 10.391448 0.000000 0.000000 0.000000 -0.193541 0.995139 -10.257870 -8.787110 -0.101746 -8.658030 -1.952446 -8.710724 18.542768 0.000000 0.000000 0.000000 3.977777 0.028685 -3.654207 -1.430962 0.792391 -4.892801 -8.287485 10.486271 -0.444646 14.434461 -6.636694 -13.897928 0.000000 0.000000 0.000000 -11.651740 5.417451 -5.795415 -36.438541 4.327009 -4.564803 -99.556797 -42.725476 44.327082 0.000000 0.000000 0.000000 12.088220 -10.500123 -4.124812 58.573058 7.208336 -0.399836 37.034037 69.460663 34.984202 0.000000 0.000000 0.000000 
-0.039734 0.947723 -0.025385 1.464395 8.382178 13.091912 6.521840 -0.935451 -13.547076 2.043158 -0.178525 -0.143407 -1.926143 1.620802 10.178331 0.000000 0.000000 0.000000 -0.169684 0.999926 -10.334729 -8.649960 -0.052334 -8.273813 -2.460563 -9.399598 18.300657 0.000000 0.000000 0.000000 4.136279 0.031010 -3.807926 -1.503423 0.815800 -4.496091 -8.379818 10.308264 -1.256796 14.315603 -6.658780 -13.441089 0.000000 0.000000 0.000000 -11.577834 5.739924 -5.925520 -36.962281 4.627552 -4.705853 -100.388679 -42.494105 44.496627 0.000000 0.000000 0.000000 12.378988 -10.889959 -4.315269 57.727492 7.462901 -0.289133 37.282757 70.255138 35.776964 0.000000 0.000000 0.000000 
-0.039484 0.947312 -0.025851 1.315503 8.529640 13.134418 6.761762 -0.931613 -13.632762 2.243826 -0.197463 -0.121540 -2.086211 1.365261 10.194739 0.000000 0.000000 0.000000 -0.104336 1.008782 -10.405562 -8.575855 -0.052948 -8.267104 -2.647548 -9.703058 18.388119 0.000000 0.000000 0.000000 4.461333 0.031567 -3.961800 -1.620832 0.879023 -5.000707 -8.256379 10.238260 -1.269148 14.336404 -6.695838 -13.369093 0.000000 0.000000 0.000000 -11.326445 6.671204 -6.188143 -37.152408 4.728599 -4.821972 -100.894922 -42.056054 44.359092 0.000000 0.000000 0.000000 12.185294 -11.652694 -4.715763 57.474632 7.111097 -0.434770 42.915216 71.514847 41.132234 0.000000 0.000000 0.000000 
-0.038866 0.946895 -0.026424 1.257238 8.839054 13.433533 7.057447 -0.936971 -13.800049 1.929768 -0.153071 -0.401952 -2.029403 1.512696 10.237814 0.000000 0.000000 0.000000 -0.269471 1.017468 -10.619014 -8.494090 -0.070139 -8.386706 -2.856441 -9.980081 18.240572 0.000000 0.000000 0.000000 4.639620 0.052660 -4.418935 -1.633940 0.888004 -5.076796 -8.142564 9.710967 -1.434145 14.136983 -6.645126 -13.162042 0.000000 0.000000 0.000000 -11.093346 7.256874 -6.280191 -37.459969 4.872034 -4.935879 -101.500191 -41.902059 44.749185 0.000000 0.000000 0.000000 11.786432 -12.497978 -5.192893 57.368660 5.768789 -1.010881 58.033655 72.004682 53.952344 0.000000 0.000000 0.000000 
-0.037833 0.947049 -0.026876 1.097307 8.702925 13.400021 7.262578 -0.908132 -13.456969 1.805319 -0.114926 -0.943046 -1.941011 1.734379 10.427105 0.000000 0.000000 0.000000 -0.282009 1.010937 -10.534311 -8.511264 -0.077319 -8.439837 -2.475133 -9.309571 17.888720 0.000000 0.000000 0.000000 4.838625 0.057861 -4.545184 -1.365465 0.787787 -5.382377 -8.178725 9.367704 -1.359804 14.024900 -6.608108 -13.134905 0.000000 0.000000 0.000000 -10.818340 8.093918 -6.449711 -37.187349 5.304535 -5.066434 -101.650641 -41.884477 45.069556 0.000000 0.000000 0.000000 11.357436 -13.131076 -5.545856 57.278454 4.581111 -1.531478 73.991113 71.379171 67.415808 0.000000 0.000000 0.000000 
-0.036461 0.947030 -0.027316 1.085481 8.529862 13.640770 7.425266 -0.904876 -13.553145 1.679382 -0.089752 -1.250392 -1.827639 2.041755 10.726287 0.000000 0.000000 0.000000 -0.587119 1.024379 -10.874951 -8.359685 -0.097401 -8.550426 -2.447099 -9.258682 17.662470 0.000000 0.000000 0.000000 4.906581 0.086660 -5.013393 -1.406757 0.804049 -5.469107 -7.758134 8.747853 -1.277533 13.625801 -6.321349 -13.386499 0.000000 0.000000 0.000000 -10.227786 8.917856 -6.451436 -37.321163 5.749689 -5.289517 -101.465039 -42.161954 45.638728 0.000000 0.000000 0.000000 10.417417 -13.973911 -5.996122 57.233753 2.605379 -2.381915 87.464065 68.057646 76.379278 0.000000 0.000000 0.000000 
-0.034851 0.947195 -0.027882 0.957162 8.007158 13.631999 7.481587 -0.873255 -13.149501 1.748808 -0.083999 -1.508335 -1.893645 1.937653 10.889796 0.000000 0.000000 0.000000 -0.728931 1.020279 -10.874068 -8.217679 -0.123625 -8.709610 -2.015569 -8.630572 17.782024 0.000000 0.000000 0.000000 4.952547 0.103637 -5.209857 -1.209441 0.723570 -5.592607 -7.698643 8.384942 -1.115776 13.280115 -6.158219 -13.341542 0.000000 0.000000 0.000000 -10.325892 9.665596 -6.707459 -36.741257 6.086377 -5.303973 -101.198803 -42.947706 46.802700 0.000000 0.000000 0.000000 10.608684 -14.834891 -6.489400 57.123043 0.605691 -3.357994 96.007909 63.885038 80.012005 0.000000 0.000000 0.000000 
